<?xml version="1.0" encoding="iso-8859-1"?>
<!-- Uploaded to: SVG Repo, www.svgrepo.com, Generator: SVG Repo Mixer Tools -->
<!DOCTYPE svg PUBLIC "-//W3C//DTD SVG 1.1//EN" "http://www.w3.org/Graphics/SVG/1.1/DTD/svg11.dtd">
<svg fill="#c08c2a" version="1.1" id="Capa_1" xmlns="http://www.w3.org/2000/svg" xmlns:xlink="http://www.w3.org/1999/xlink" 
	 width="800px" height="800px" viewBox="0 0 31.744 31.744"
	 xml:space="preserve">
<g>
	<path d="M30.116,5.689c0,0-1.6-3.198-2.082-3.311l-0.111-2.044l-0.854,1.822L26.845,0l-1.449,2.045c0,0-4.103,0.504-6.592,6.325
		c-0.933,0.166-2.038,0.274-2.215-0.101c0,0,1.717-1.935,1.76-2.381c0,0,0.959-0.104,1.189-0.123
		c0.118-0.013-0.017-0.217,0.108-0.66c0,0,0.252-0.082,0.301-0.17c0.142-0.26-0.188-0.881-0.158-1.176
		c0.023-0.227,0.597-0.191,0.749-0.358c0.13-0.138,0.201-0.644-0.568-0.474c0,0-0.955-2.32-3.127-0.951c0,0-0.984,0.809-0.506,1.97
		c0,0-5.272,0.915-5.001,1.45c0,0-3.074,1.004-2.302,1.312c0,0,0.19,0.169,0.403,0.253c0,0-1.625,1.758-0.334,2.741
		c0,0,0.09,0.091,0.276,0.217c-0.669,0.037-1.364,0.239-2.057,0.752c0,0-7.14,0.074-6.396,9.37c0,0,3.123-1.785,4.016-7.361
		c0,0,0.521-1.487,1.115-0.968c0,0-1.785,1.636-0.445,5.726c0,0-0.148,2.084-2.454,2.977c0,0-0.743,0.299-0.595,3.198
		c0,0-1.041,4.312,0,5.058c0,0-0.894,2.01,0.817,2.01c0,0,1.338,0.223,1.115-0.818c0,0-0.595-1.041-0.968-1.115
		c0,0,0.148-1.339-0.445-1.562l0.298-2.899c0,0,0.817-0.967,1.188-2.527c0,0,3.086-0.78,3.756-2.862c0,0,1.152,0.854,0.187,2.899
		c0,0-0.743,1.004,0.78,2.082c0,0,2.083,1.412,2.38,2.343c0,0,0,0.817,0.817,0.854c0,0,0.336,0.372-0.223,0.559
		c0,0-0.559,0.632,0.743,1.375c0,0,1.562,0.968,1.302-0.407c0,0-0.596-2.642-2.23-3.496c0,0-2.156-2.379-1.189-3.531
		c0,0,1.264-1.229,1.375-2.491c0,0,5.579,0.297,6.62-0.521c0,0,0.26,1.338,1.523,1.338c0,0-0.818,2.899-0.335,4.312l-0.223,3.348
		c0,0-0.781,0.779-0.149,1.637c0,0,0.335,0.408,0.112,0.781c0,0-0.597,1.301,1.412,1.748c0,0,1.301,0.223,1.004-0.818
		c0,0-0.894-1.264-1.152-1.785c0,0-0.596-3.979,0.408-4.908c0,0,0.707-0.148,0.559-2.23c0,0-0.223-1.301,1.896-0.521
		c0,0,2.269,0.929,2.752,5.095c0,0,0.186,0.26,0.521,0.371c0,0,0.111,0.224-0.408,0.408c0,0-0.894,0.855,0.93,1.859
		c0,0,1.115,0.224,0.893-0.633l-1.819-5.985c0,0-0.373-1.599-1.562-2.082c0,0-2.307-0.78-1.34-2.046c0,0,2.344-5.727,1.414-9.109
		c0,0-0.446-2.156,0.705-2.379c0,0,0.373-0.111,0.854,0c0,0,1.078,1.338,2.193,0.967c0,0,0.67,0.855,1.412,0.297
		C30.488,8.219,31.565,7.178,30.116,5.689z M17.987,9.876c-0.131,0.136-0.287,0.272-0.48,0.401l-0.263-0.275L17.987,9.876z"/>
</g>
</svg>